<svg aria-hidden="true" style="position: absolute; width: 0; height: 0; overflow: hidden;" version="1.1" xmlns="http://www.w3.org/2000/svg" xmlns:xlink="http://www.w3.org/1999/xlink">
<defs>
<symbol id="arrowup" viewBox="0 0 59 32">
<path d="M0 24.681c3.15 3.22 7.452 5.199 11.923 5.981 0.010 0 0.016 0.003 0.025 0.003 0.334 0.059 0.675 0.112 1.009 0.156 0.117 0.016 0.233 0.031 0.35 0.044 0.224 0.025 0.448 0.050 0.672 0.072 0.104 0.012 0.211 0.022 0.315 0.028 4.409 0.368 8.877-0.308 13.122-1.555 6.004-1.767 11.646-4.697 16.54-8.559 0.158-0.128 0.315-0.253 0.473-0.38 0.615-0.496 1.22-1.010 1.81-1.537-0.115 2.592-0.423 5.214-0.642 6.838l-0.001 0.001c-0.134 1-0.235 1.621-0.235 1.621 10.269-12.65 13.18-24.703 11.278-26.705-0.049-0.051-0.107-0.099-0.17-0.145-0.024-0.017-0.050-0.033-0.075-0.050-0.050-0.032-0.102-0.063-0.16-0.092-0.013-0.007-0.024-0.015-0.038-0.022-0.008-0.004-0.018-0.007-0.026-0.011-0.085-0.040-0.175-0.078-0.274-0.112s-0.206-0.063-0.319-0.090c-0.025-0.006-0.051-0.011-0.077-0.017-0.003-0.001-0.006-0.001-0.009-0.002-0.001 0-0.002-0-0.003-0.001-0.088-0.019-0.18-0.037-0.275-0.052-0.036-0.006-0.071-0.012-0.108-0.017-0.119-0.017-0.243-0.032-0.372-0.043-0.009-0.001-0.018-0.002-0.027-0.003h-0.001c-0.001 0-0.002-0-0.004-0s-0.003-0-0.005-0.001l0.001 0c-3.294-0.277-9.974 1.246-17.795 5.307-2.549 1.324-5.219 2.915-7.933 4.804h0c0 0 2.138-0.204 4.876-0.299 3.144-0.109 7.081-0.075 9.485 0.576-4.463 4.86-9.955 8.793-16.020 11.468-0.613 0.27-1.23 0.532-1.854 0.776-3.286 1.287-6.649 2.098-10.056 2.521-4.997 0.619-10.092 0.392-15.197-0.471 0.002 0.001 0.004 0.001 0.005 0.002-0.001-0-0.003-0-0.005-0.001-0.070-0.012-0.136-0.024-0.205-0.034z"></path>
<path d="M1.892 25.616c0.069 0.009 0.136 0.022 0.205 0.034 8.587 1.449 17.148 1.122 25.253-2.051 6.802-2.659 12.961-6.892 17.874-12.244-4.497-1.219-14.361-0.277-14.361-0.277 12.626-8.787 24.31-11.181 27.227-9.763 0.183 0.087 0.331 0.19 0.442 0.308 1.901 2.001-1.009 14.055-11.277 26.704 0 0 0.691-4.27 0.877-8.46-0.59 0.527-1.195 1.041-1.81 1.537-0.158 0.128-0.315 0.253-0.473 0.38-4.894 3.862-10.536 6.792-16.54 8.559-4.244 1.247-8.713 1.923-13.122 1.555-0.104-0.006-0.211-0.016-0.315-0.028-0.224-0.022-0.448-0.047-0.672-0.072-0.117-0.012-0.233-0.028-0.35-0.044-0.334-0.044-0.675-0.097-1.009-0.156-0.009 0-0.016-0.003-0.025-0.003-4.471-0.782-8.772-2.761-11.923-5.981z"></path>
<path d="M47.254 28.329c0 0 0.1-0.621 0.235-1.621 9.321-12.098 11.938-23.306 10.111-25.23-0.212-0.223-0.551-0.394-1.009-0.511 0.941 0.079 1.604 0.304 1.941 0.658 1.903 2.002-1.009 14.055-11.278 26.704z"></path>
<path d="M13.84 31.601c0.025 0.003 0.050 0.006 0.076 0.009 4.837 0.642 9.785-0.038 14.462-1.412 6.959-2.048 14.367-6.468 19.753-11.277-0.013 0.337 0.022 0.614 0 0.948-0.602 0.511-1.205 1.026-1.81 1.537-0.158 0.128-0.315 0.253-0.473 0.38-4.894 3.862-10.536 6.792-16.54 8.559-4.244 1.247-8.713 1.923-13.122 1.555-0.104-0.006-0.211-0.016-0.315-0.028-0.224-0.022-0.448-0.047-0.672-0.072-0.117-0.012-0.233-0.028-0.35-0.044-0.334-0.043-0.674-0.097-1.009-0.156z"></path>
<path d="M50.295 9.594c1.365 1.437 0.106 9.202 0.106 9.202 5.883-7.247 7.551-14.153 6.462-15.3s-8.167 0.067-15.853 5.416c0 0 7.919-0.755 9.285 0.682z"></path>
<path d="M2.097 25.649c8.587 1.451 17.149 1.124 25.253-2.049 6.801-2.66 12.959-6.893 17.874-12.244-4.497-1.218-14.361-0.277-14.361-0.277 12.627-8.787 24.31-11.181 27.226-9.763-6.942 10.497-17.229 18.802-29.031 23.41-5.022 1.962-10.355 3.272-15.755 3.288-3.637 0.011-7.624-0.873-11.207-2.365z"></path>
</symbol>
<symbol id="arrow" viewBox="0 0 59 32">
<path d="M0 7.319c3.15-3.22 7.452-5.199 11.923-5.981 0.010 0 0.016-0.003 0.025-0.003 0.334-0.059 0.675-0.112 1.009-0.156 0.117-0.016 0.233-0.031 0.35-0.044 0.224-0.025 0.448-0.050 0.672-0.072 0.104-0.012 0.211-0.022 0.315-0.028 4.409-0.368 8.877 0.308 13.122 1.555 6.004 1.767 11.646 4.697 16.54 8.559 0.158 0.128 0.315 0.253 0.473 0.38 0.615 0.496 1.22 1.010 1.81 1.537-0.115-2.592-0.423-5.214-0.642-6.838l-0.001-0.001c-0.134-1-0.235-1.621-0.235-1.621 10.269 12.65 13.18 24.703 11.278 26.705-0.049 0.051-0.107 0.099-0.17 0.145-0.024 0.017-0.050 0.033-0.075 0.050-0.050 0.032-0.102 0.063-0.16 0.092-0.013 0.007-0.024 0.015-0.038 0.022-0.008 0.004-0.018 0.007-0.026 0.011-0.085 0.040-0.175 0.078-0.274 0.111s-0.206 0.063-0.319 0.090c-0.025 0.006-0.051 0.012-0.077 0.017-0.003 0.001-0.006 0.001-0.009 0.002-0.001 0-0.002 0-0.003 0.001-0.088 0.019-0.18 0.037-0.275 0.052-0.036 0.006-0.071 0.012-0.108 0.017-0.119 0.017-0.243 0.032-0.372 0.043-0.009 0.001-0.018 0.002-0.027 0.003h-0.001c-0.001 0-0.002 0-0.004 0s-0.003 0-0.005 0.001l0.001-0c-3.294 0.277-9.974-1.246-17.795-5.307-2.549-1.324-5.219-2.915-7.933-4.804h0c0 0 2.138 0.204 4.876 0.299 3.144 0.109 7.081 0.075 9.485-0.576-4.463-4.86-9.955-8.793-16.020-11.468-0.613-0.27-1.23-0.532-1.854-0.776-3.286-1.287-6.649-2.098-10.056-2.521-4.997-0.619-10.092-0.392-15.197 0.471 0.002-0.001 0.004-0.001 0.005-0.002-0.001 0-0.003 0-0.005 0.001-0.070 0.012-0.136 0.024-0.205 0.034z"></path>
<path d="M1.892 6.384c0.069-0.009 0.136-0.022 0.205-0.034 8.587-1.449 17.148-1.122 25.253 2.051 6.802 2.659 12.961 6.892 17.874 12.244-4.497 1.219-14.361 0.277-14.361 0.277 12.626 8.787 24.31 11.181 27.227 9.763 0.183-0.087 0.331-0.19 0.441-0.308 1.901-2.001-1.009-14.055-11.277-26.704 0 0 0.691 4.27 0.877 8.46-0.59-0.527-1.195-1.041-1.81-1.537-0.158-0.128-0.315-0.253-0.473-0.38-4.894-3.862-10.536-6.792-16.54-8.559-4.244-1.247-8.713-1.923-13.122-1.555-0.104 0.006-0.211 0.016-0.315 0.028-0.224 0.022-0.448 0.047-0.672 0.072-0.117 0.013-0.233 0.028-0.35 0.044-0.334 0.044-0.675 0.097-1.009 0.156-0.010 0-0.016 0.003-0.025 0.003-4.471 0.782-8.772 2.761-11.923 5.981z"></path>
<path d="M47.254 3.671c0 0 0.1 0.622 0.235 1.621 9.321 12.098 11.938 23.306 10.111 25.23-0.212 0.223-0.551 0.394-1.009 0.511 0.941-0.079 1.604-0.304 1.941-0.658 1.903-2.002-1.009-14.055-11.278-26.704z"></path>
<path d="M13.84 0.399c0.025-0.003 0.050-0.006 0.076-0.009 4.837-0.642 9.785 0.038 14.462 1.412 6.959 2.048 14.367 6.468 19.753 11.277-0.013-0.337 0.022-0.614 0-0.948-0.602-0.511-1.205-1.026-1.81-1.537-0.158-0.128-0.315-0.253-0.473-0.38-4.894-3.862-10.536-6.792-16.54-8.559-4.244-1.247-8.713-1.923-13.122-1.555-0.104 0.006-0.211 0.016-0.315 0.028-0.224 0.022-0.448 0.047-0.672 0.072-0.117 0.013-0.233 0.028-0.35 0.044-0.334 0.043-0.674 0.097-1.009 0.156z"></path>
<path d="M50.295 22.406c1.365-1.437 0.106-9.202 0.106-9.202 5.883 7.247 7.551 14.153 6.462 15.3s-8.167-0.067-15.853-5.416c0 0 7.919 0.755 9.285-0.682z"></path>
<path d="M2.097 6.351c8.587-1.45 17.149-1.124 25.253 2.049 6.801 2.66 12.959 6.893 17.874 12.244-4.497 1.218-14.36 0.277-14.36 0.277 12.627 8.787 24.31 11.182 27.226 9.763-6.942-10.497-17.229-18.802-29.031-23.41-5.022-1.962-10.355-3.272-15.755-3.288-3.637-0.011-7.624 0.873-11.207 2.364z"></path>
</symbol>
<symbol id="Vector-close" viewBox="0 0 32 32">
<path d="M3.111 31.111l-3.111-3.111 12.444-12.444-12.444-12.444 3.111-3.111 12.444 12.444 12.444-12.444 3.111 3.111-12.444 12.444 12.444 12.444-3.111 3.111-12.444-12.444-12.444 12.444z"></path>
</symbol>
<symbol id="Vector-2" viewBox="0 0 32 32">
<path d="M22.449 11.151c0.112 0.111 0.2 0.244 0.26 0.389s0.092 0.302 0.092 0.46-0.031 0.314-0.092 0.46c-0.060 0.146-0.149 0.278-0.26 0.389l-8.4 8.4c-0.111 0.112-0.244 0.2-0.389 0.26s-0.302 0.092-0.46 0.092-0.314-0.031-0.46-0.092c-0.146-0.060-0.278-0.149-0.389-0.26l-3.6-3.6c-0.225-0.225-0.352-0.531-0.352-0.849s0.127-0.624 0.352-0.849c0.225-0.225 0.531-0.352 0.849-0.352s0.624 0.127 0.849 0.352l2.751 2.753 7.551-7.553c0.111-0.112 0.244-0.2 0.389-0.26s0.302-0.091 0.46-0.091c0.158 0 0.314 0.031 0.46 0.091s0.278 0.149 0.389 0.26zM31.2 15.6c0 3.085-0.915 6.101-2.629 8.667s-4.151 4.565-7.001 5.746c-2.851 1.181-5.987 1.49-9.013 0.888s-5.806-2.088-7.987-4.269c-2.182-2.182-3.667-4.961-4.269-7.988s-0.293-6.163 0.888-9.013 3.18-5.287 5.746-7.001c2.565-1.714 5.582-2.629 8.667-2.629 4.136 0.004 8.101 1.649 11.026 4.574s4.57 6.89 4.574 11.026zM28.8 15.6c0-2.611-0.774-5.163-2.225-7.334s-3.512-3.863-5.924-4.862c-2.412-0.999-5.066-1.26-7.627-0.751s-4.913 1.766-6.759 3.613c-1.846 1.846-3.103 4.198-3.613 6.759s-0.248 5.215 0.751 7.627c0.999 2.412 2.691 4.474 4.862 5.924s4.723 2.225 7.334 2.225c3.5-0.004 6.855-1.396 9.329-3.871s3.867-5.83 3.871-9.329z"></path>
</symbol>
<symbol id="Vector-burger" viewBox="0 0 48 32">
<path d="M0 32v-5.333h48v5.333h-48zM0 18.667v-5.333h48v5.333h-48zM0 5.333v-5.333h48v5.333h-48z"></path>
</symbol>
</defs>
</svg>
